<svg width="21" height="20" viewBox="0 0 21 20" fill="none" xmlns="http://www.w3.org/2000/svg">
<path fill-rule="evenodd" clip-rule="evenodd" d="M9 14C9 10.6862 11.6862 8 15 8C18.3138 8 21 10.6862 21 14C21 17.3138 18.3138 20 15 20C11.6862 20 9 17.3138 9 14ZM15.6 11C15.6 10.8409 15.5368 10.6883 15.4243 10.5757C15.3117 10.4632 15.1591 10.4 15 10.4C14.8409 10.4 14.6883 10.4632 14.5757 10.5757C14.4632 10.6883 14.4 10.8409 14.4 11V13.2584C14.4 13.5926 14.4931 13.9203 14.6688 14.2046C14.8445 14.4889 15.0959 14.7187 15.3948 14.8682L17.1318 15.7364C17.2025 15.7745 17.2802 15.7981 17.3602 15.8056C17.4402 15.8132 17.5209 15.8046 17.5975 15.7804C17.6741 15.7561 17.7451 15.7168 17.8062 15.6646C17.8673 15.6124 17.9173 15.5485 17.9532 15.4766C17.9892 15.4047 18.0103 15.3264 18.0154 15.2462C18.0205 15.166 18.0094 15.0856 17.9828 15.0098C17.9562 14.934 17.9147 14.8642 17.8606 14.8048C17.8066 14.7453 17.7411 14.6973 17.6682 14.6636L15.9318 13.7948C15.8322 13.745 15.7483 13.6685 15.6897 13.5737C15.6311 13.479 15.6001 13.3698 15.6 13.2584V11Z" fill="#9D9D9D"/>
<path fill-rule="evenodd" clip-rule="evenodd" d="M3 0C2.20435 0 1.44129 0.31607 0.87868 0.87868C0.31607 1.44129 0 2.20435 0 3V15C0 15.7956 0.31607 16.5587 0.87868 17.1213C1.44129 17.6839 2.20435 18 3 18H9.25469C8.83338 17.396 8.50489 16.7224 8.28988 16H3C2.73478 16 2.48043 15.8946 2.29289 15.7071C2.10536 15.5196 2 15.2652 2 15V3C2 2.73478 2.10536 2.48043 2.29289 2.29289C2.48043 2.10536 2.73478 2 3 2H15C15.2652 2 15.5196 2.10536 15.7071 2.29289C15.8946 2.48043 16 2.73478 16 3V7.07089C16.7061 7.1719 17.3783 7.37829 18 7.67363V3C18 2.20435 17.6839 1.44129 17.1213 0.87868C16.5587 0.31607 15.7956 0 15 0H3ZM11.3924 8H8C7.44772 8 7 8.44772 7 9C7 9.55229 7.44772 10 8 10H9.25469C9.81787 9.19259 10.5469 8.50946 11.3924 8ZM8.28988 12H8C7.44772 12 7 12.4477 7 13C7 13.5523 7.44772 14 8 14C8 13.305 8.10128 12.6337 8.28988 12ZM5 4C4.44772 4 4 4.44772 4 5C4 5.55228 4.44772 6 5 6H5.001C5.55329 6 6.001 5.55228 6.001 5C6.001 4.44772 5.55329 4 5.001 4H5ZM8 4C7.44772 4 7 4.44772 7 5C7 5.55228 7.44772 6 8 6H13C13.5523 6 14 5.55228 14 5C14 4.44772 13.5523 4 13 4H8ZM5 8C4.44772 8 4 8.44772 4 9C4 9.55229 4.44772 10 5 10H5.001C5.55329 10 6.001 9.55229 6.001 9C6.001 8.44772 5.55329 8 5.001 8H5ZM5 12C4.44772 12 4 12.4477 4 13C4 13.5523 4.44772 14 5 14H5.001C5.55329 14 6.001 13.5523 6.001 13C6.001 12.4477 5.55329 12 5.001 12H5Z" fill="#9D9D9D"/>
</svg>
